<svg width="48" height="48" xmlns="http://www.w3.org/2000/svg" xmlns:xlink="http://www.w3.org/1999/xlink" xml:space="preserve" overflow="hidden"><defs><clipPath id="clip0"><rect x="1163" y="317" width="48" height="48"/></clipPath></defs><g clip-path="url(#clip0)" transform="translate(-1163 -317)"><path d="M1175 339 1175 334 1174 333 1171 333 1171 328 1169 328 1169 333 1166 333 1165 334 1165 339 1166 340 1169 340 1169 354 1171 354 1171 340 1174 340 1175 339ZM1173 338 1167 338 1167 335 1173 335 1173 338Z"/><path d="M1193 335 1193 328 1191 328 1191 335 1188 335 1187 336 1187 341 1188 342 1191 342 1191 354 1193 354 1193 342 1196 342 1197 341 1197 336 1196 335 1193 335ZM1195 340 1189 340 1189 337 1195 337 1195 340Z"/><path d="M1208 330 1205 330 1205 328 1203 328 1203 330 1200 330 1199 331 1199 336 1200 337 1203 337 1203 354 1205 354 1205 337 1208 337 1209 336 1209 331 1208 330ZM1207 335 1201 335 1201 332 1207 332 1207 335Z"/><path d="M1181 342 1181 328 1179 328 1179 342 1176 342 1175 343 1175 348 1176 349 1179 349 1179 354 1181 354 1181 349 1184 349 1185 348 1185 343 1184 342 1181 342ZM1183 347 1177 347 1177 344 1183 344 1183 347Z"/></g></svg>