<svg width="60" height="60" xmlns="http://www.w3.org/2000/svg" xmlns:xlink="http://www.w3.org/1999/xlink" xml:space="preserve" overflow="hidden" viewBox="0 0 48 48"><defs><clipPath id="clip0"><rect x="69" y="422" width="48" height="48" /></clipPath></defs><g clip-path="url(#clip0)" transform="translate(-69 -422)"><path d="M76 428 75 429 75 433 76 434 80 434 81 433 81 429 80 428 76 428ZM79 432 77 432 77 430 79 430 79 432Z" /><path d="M78 424C74.141 424 71 427.14 71 431 71 434.555 76.576 441.801 77.212 442.615L78.788 442.615C79.424 441.801 85 434.555 85 431 85 427.14 81.859 424 78 424ZM78 440.344C75.805 437.367 73 432.923 73 431 73 428.243 75.243 426 78 426 80.757 426 83 428.243 83 431 83 432.921 80.195 437.366 78 440.344Z" /><path d="M91 453 90 454 90 458 91 459 95 459 96 458 96 454 95 453 91 453ZM94 457 92 457 92 455 94 455 94 457Z" /><path d="M93 449C89.141 449 86 452.14 86 456 86 459.555 91.576 466.801 92.212 467.615L93.788 467.615C94.424 466.801 100 459.555 100 456 100 452.14 96.859 449 93 449ZM93 465.344C90.805 462.366 88 457.923 88 456 88 453.243 90.243 451 93 451 95.757 451 98 453.243 98 456 98 457.921 95.195 462.366 93 465.344Z" /><path d="M106 428 105 429 105 433 106 434 110 434 111 433 111 429 110 428 106 428ZM109 432 107 432 107 430 109 430 109 432Z" /><path d="M108 424C104.141 424 101 427.14 101 431 101 434.555 106.576 441.801 107.212 442.615L108.788 442.615C109.424 441.801 115 434.555 115 431 115 427.14 111.859 424 108 424ZM108 440.344C105.805 437.366 103 432.923 103 431 103 428.243 105.243 426 108 426 110.757 426 113 428.243 113 431 113 432.921 110.195 437.366 108 440.344Z" /><path d="M86 433 100 433 100 435 86 435Z" /><path d="M94.1407 446.484 100.142 436.485 101.857 437.514 95.8555 447.513Z" /><path d="M84.1427 437.515 85.8577 436.486 91.8577 446.486 90.1428 447.515Z" /></g></svg>