<svg width="48" height="48" xmlns="http://www.w3.org/2000/svg" xmlns:xlink="http://www.w3.org/1999/xlink" xml:space="preserve" overflow="hidden"><g transform="translate(-798 -316)"><path d="M804 346 806 346 806 348 804 348Z"/><path d="M804 350 806 350 806 352 804 352Z"/><path d="M808 346 810 346 810 348 808 348Z"/><path d="M808 350 810 350 810 352 808 352Z"/><path d="M834 346 836 346 836 348 834 348Z"/><path d="M834 350 836 350 836 352 834 352Z"/><path d="M838 346 840 346 840 348 838 348Z"/><path d="M838 350 840 350 840 352 838 352Z"/><path d="M843 342 832 342 832 339 832 338 832 335.8 831.297 334.845 823 332.264 823 327.388 824.684 327.949 825.448 327.895 827.236 327 830 327 831 326 831 321 830 320 827 320 826.553 320.105 824.923 320.92 822.317 320.051 821 321 821 322 821 326 821 332.264 812.703 334.845 812 335.8 812 338 812 339 812 342 801 342 800 343 800 358 801 359 812 359 832 359 843 359 844 358 844 343 843 342ZM823 322.387 824.684 322.949 825.448 322.895 827.236 322 829 322 829 325 827 325 826.553 325.105 824.923 325.92 823 325.279 823 322.387ZM812 357 802 357 802 344 812 344 812 357ZM824 357 820 357 820 352C820 350.86 820.859 350 822 350 823.141 350 824 350.86 824 352L824 357ZM830 357 826 357 826 352C826 349.757 824.243 348 822 348 819.757 348 818 349.757 818 352L818 357 814 357 814 344 830 344 830 357ZM830 342 814 342 814 340 830 340 830 342ZM830 338 814 338 814 336.536 822 334.047 830 336.536 830 338ZM842 357 832 357 832 344 842 344 842 357Z"/></g></svg>