<svg width="48" height="48" xmlns="http://www.w3.org/2000/svg" xmlns:xlink="http://www.w3.org/1999/xlink" xml:space="preserve" overflow="hidden"><defs><clipPath id="clip0"><rect x="677" y="422" width="48" height="48"/></clipPath></defs><g clip-path="url(#clip0)" transform="translate(-677 -422)"><path d="M695.018 428.041C688.395 428.041 683.006 433.43 683.006 440.053 683.006 446.676 688.395 452.064 695.018 452.064 701.641 452.064 707.03 446.676 707.03 440.053 707.03 433.43 701.641 428.041 695.018 428.041ZM695.018 450.063C689.497 450.063 685.006 445.572 685.006 440.052 685.006 434.531 689.497 430.04 695.018 430.04 700.539 430.04 705.03 434.531 705.03 440.052 705.029 445.572 700.538 450.063 695.018 450.063Z"/><path d="M708.662 448.374C710.194 445.868 711 443.005 711 440.041 711 431.219 703.822 424.041 695 424.041 686.178 424.041 679 431.219 679 440.041 679 448.863 686.178 456.041 695 456.041 698.442 456.041 701.798 454.925 704.547 452.882L718.437 466.749 719.85 466.748 722.678 463.92 722.681 462.509 708.662 448.374ZM719.142 464.627 705.331 450.839 703.983 450.78C701.47 452.883 698.28 454.041 695 454.041 687.28 454.041 681 447.761 681 440.041 681 432.321 687.28 426.041 695 426.041 702.72 426.041 709 432.321 709 440.041 709 442.878 708.156 445.61 706.56 447.941L706.675 449.211 720.56 463.21 719.142 464.627Z"/><path d="M697.207 435.334 696.5 435.041 696 435.041 696 434.041 694 434.041 694 435.041 693.5 435.041 692.793 435.334 691.793 436.334 691.5 437.041 691.5 439.041 692.129 439.97 696.5 441.718 696.5 442.627 696.086 443.041 693.914 443.041 693.5 442.627 693.5 442.041 691.5 442.041 691.5 443.041 691.793 443.748 692.793 444.748 693.5 445.041 694 445.041 694 446.041 696 446.041 696 445.041 696.5 445.041 697.207 444.748 698.207 443.748 698.5 443.041 698.5 441.041 697.871 440.112 693.5 438.364 693.5 437.455 693.914 437.041 696.086 437.041 696.5 437.455 696.5 438.041 698.5 438.041 698.5 437.041 698.207 436.334Z"/></g></svg>