<svg width="48" height="48" xmlns="http://www.w3.org/2000/svg" xmlns:xlink="http://www.w3.org/1999/xlink" xml:space="preserve" overflow="hidden"><g transform="translate(-312 -528)"><path d="M335.354 547.841C335.574 547.864 335.792 547.876 336.008 547.876 337.476 547.876 338.855 547.353 339.944 546.372 340.923 545.489 341.562 544.295 341.783 543L343.375 543 343.375 542C343.375 537.934 340.066 534.625 336 534.625L335 534.625 335 536.217C333.705 536.438 332.51 537.077 331.628 538.056 330.502 539.306 329.981 540.936 330.159 542.647 330.444 545.371 332.629 547.556 335.354 547.841ZM341.282 541 337 541 337 536.718C339.163 537.127 340.873 538.837 341.282 541ZM333.114 539.396C333.626 538.828 334.275 538.437 335 538.25L335 543 339.75 543C339.563 543.725 339.173 544.374 338.604 544.886 337.781 545.628 336.699 545.967 335.561 545.853 333.799 545.667 332.332 544.201 332.147 542.44 332.029 541.3 332.372 540.219 333.114 539.396Z"/><path d="M350 530 322 530 321 531 321 573 322 574 350 574 351 573 351 531 350 530ZM349 572 323 572 323 532 349 532 349 572Z"/><path d="M326.832 568.707 329.125 566.414 331.418 568.707 332.832 567.293 330.539 565 332.832 562.707 331.418 561.293 329.125 563.586 326.832 561.293 325.418 562.707 327.711 565 325.418 567.293Z"/><path d="M332.925 552.8 331.325 551.601 328.356 555.558 326.765 554.231 325.485 555.769 328.694 558.442Z"/><path d="M335 552 346 552 346 554 335 554Z"/><path d="M335 556 346 556 346 558 335 558Z"/><path d="M335 562 346 562 346 564 335 564Z"/><path d="M335 566 346 566 346 568 335 568Z"/></g></svg>