<svg width="48" height="48" xmlns="http://www.w3.org/2000/svg" xmlns:xlink="http://www.w3.org/1999/xlink" xml:space="preserve" overflow="hidden"><defs><clipPath id="clip0"><rect x="434" y="211" width="48" height="48"/></clipPath></defs><g clip-path="url(#clip0)" transform="translate(-434 -211)"><path d="M459 217 459 213 457 213 457 217 437 217 436 218 436 243 437 244 457 244 457 249.33 445.62 254 445 255 445 257 447 257 447 255.63 457 251.46 457 257 459 257 459 251.5 469 255.67 469 257 471 257 471 255 470.38 254 459 249.29 459 244 479 244 480 243 480 218 479 217ZM478 242 438 242 438 219 478 219Z"/><path d="M443 234.96 445 234.96 445 238.96 443 238.96Z"/><path d="M447 232.96 449 232.96 449 238.96 447 238.96Z"/><path d="M451 230.96 453 230.96 453 238.96 451 238.96Z"/><path d="M455 228.96 457 228.96 457 238.96 455 238.96Z"/><path d="M459 228.96 461 228.96 461 238.96 459 238.96Z"/><path d="M463 228.96 465 228.96 465 238.96 463 238.96Z"/><path d="M467 224.96 469 224.96 469 238.96 467 238.96Z"/><path d="M471 221.96 473 221.96 473 238.96 471 238.96Z"/></g></svg>