<svg width="48" height="48" xmlns="http://www.w3.org/2000/svg" xmlns:xlink="http://www.w3.org/1999/xlink" xml:space="preserve" overflow="hidden"><defs><clipPath id="clip0"><rect x="677" y="422" width="48" height="48"/></clipPath></defs><g clip-path="url(#clip0)" transform="translate(-677 -422)"><path d="M696.89 437.41 697.95 435.3 701.09 442.36 702.93 442.33 704.68 437.96 707 437.96 707 435.96 704 435.96 703.07 436.59 701.95 439.39 698.91 432.55 697.11 432.51 695.38 435.96 693 435.96 693 437.96 696 437.96 696.89 437.41Z"/><path d="M700 451 701 451 701.71 450.71 714.71 437.71 715 437 715 429 714.71 428.29 710.71 424.29 710 424 705 424 704.29 424.29 700.59 428 700.41 428 696.71 424.29 696 424 691 424 690.29 424.29 686.29 428.29 686 429 686 437 686.29 437.71 699.29 450.71ZM688 436.55 688 429.37 691.39 426 695.59 426 699.29 429.71 700 430 701 430 701.71 429.71 705.41 426 709.61 426 713 429.37 713 436.55 700.59 449 700.41 449Z"/><path d="M699 468 699 465 699 464.64 698 461.64 697.83 461.33 694 456.61 694 452C694 450.343 692.657 449 691 449 689.343 449 688 450.343 688 452L688 457.19 687.57 457.1 685 453.63 685 445C685 443.343 683.657 442 682 442 680.343 442 679 443.343 679 445L679 456.38 679.19 456.96 684.19 463.96 684.49 464.24 690 467.53 690 468 692 468 692 467 691.51 466.14 685.69 462.63 681 456.06 681 445C681 444.448 681.448 444 682 444 682.552 444 683 444.448 683 445L683 454 683.2 454.6 686.2 458.6 686.79 458.98 688.79 459.4 690 458.4 690 452C690 451.448 690.448 451 691 451 691.552 451 692 451.448 692 452L692 457 692.22 457.62 696.11 462.48 697 465.12 697 468Z"/><path d="M720 442C718.343 442 717 443.343 717 445L717 453.67 714.43 457.1 714 457.19 714 452C714 450.343 712.657 449 711 449 709.343 449 708 450.343 708 452L708 456.65 704.22 461.37 704.05 461.68 703.05 464.68 703 465 703 468 705 468 705 465.12 705.89 462.44 709.78 457.58 710 457 710 452C710 451.448 710.448 451 711 451 711.552 451 712 451.448 712 452L712 458.42 713.21 459.42 715.21 459 715.8 458.62 718.8 454.62 719 454 719 445C719 444.448 719.448 444 720 444 720.552 444 721 444.448 721 445L721 456.1 716.31 462.67 710.49 466.1 710 467 710 468 712 468 712 467.57 717.51 464.28 717.81 464 722.81 457 723 456.42 723 445C723 443.343 721.657 442 720 442Z"/></g></svg>