<svg width="48" height="48" xmlns="http://www.w3.org/2000/svg" xmlns:xlink="http://www.w3.org/1999/xlink" xml:space="preserve" overflow="hidden"><defs><clipPath id="clip0"><rect x="69" y="422" width="48" height="48"/></clipPath></defs><g clip-path="url(#clip0)" transform="translate(-69 -422)"><path d="M113 464.586 72.707 424.293 71.293 425.707 111.586 466 101 466 101 468 114 468 115 467 115 454 113 454Z"/><path d="M115 428 115 427 114.707 426.293 113.707 425.293 113 425 112.5 425 112.5 424 110.5 424 110.5 425 110 425 109.293 425.293 108.293 426.293 108 427 108 429 108.628 429.929 113 431.677 113 432.586 112.586 433 110.414 433 110 432.586 110 432 108 432 108 433 108.293 433.707 109.293 434.707 110 435 110.5 435 110.5 436 112.5 436 112.5 435 113 435 113.707 434.707 114.707 433.707 115 433 115 431 114.372 430.071 110 428.323 110 427.414 110.414 427 112.586 427 113 427.414 113 428Z"/><path d="M84.707 455.293 84 455 81 455 80.293 455.293 79.293 456.293 79 457 79 463 79.293 463.707 80.293 464.707 81 465 84 465 84.707 464.707 85.707 463.707 86 463 86 457 85.707 456.293 84.707 455.293ZM84 462.586 83.586 463 81.414 463 81 462.586 81 457.414 81.414 457 83.586 457 84 457.414 84 462.586Z"/><path d="M73.414 457 75.586 457 76.293 457.707 77.707 456.293 76.707 455.293 76 455 73 455 72.293 455.293 71.293 456.293 71 457 71 463 71.293 463.707 72.293 464.707 73 465 76 465 76.707 464.707 77.707 463.707 76.293 462.293 75.586 463 73.414 463 73 462.586 73 457.414Z"/><path d="M92.6 463.8 93 463 93 462 92.707 461.293 91.707 460.293 91 460 89 460 88.293 460.293 87.293 461.293 87 462 87 463 89 463 89 462.414 89.414 462 90.586 462 91 462.414 91 462.5 87.4 465.2 87 466 87 466.989 87.998 467.989 92.998 468 93.002 466 89.676 465.993Z"/></g></svg>