<svg width="48" height="48" xmlns="http://www.w3.org/2000/svg" xmlns:xlink="http://www.w3.org/1999/xlink" xml:space="preserve" overflow="hidden"><defs><clipPath id="clip0"><rect x="1163" y="211" width="48" height="48"/></clipPath></defs><g clip-path="url(#clip0)" transform="translate(-1163 -211)"><path d="M1203 238 1202 238 1202 232 1202 225 1201 224 1194 224 1193 224 1193 218 1192 217 1190 217 1190 213 1188 213 1188 217 1186 217 1186 213 1184 213 1184 217 1182 217 1181 218 1181 224 1180 224 1173 224 1172 225 1172 232 1172 238 1171 238 1170.04 239.282 1175.04 256.282 1176 257 1198 257 1198.96 256.282 1203.96 239.282 1203 238ZM1195 238 1195 233 1200 233 1200 238 1195 238ZM1181 231 1181 226 1182 226 1186 226 1186 231 1181 231ZM1188 226 1192 226 1193 226 1193 231 1188 231 1188 226ZM1200 231 1195 231 1195 226 1200 226 1200 231ZM1183 219 1191 219 1191 224 1187 224 1183 224 1183 219ZM1174 226 1179 226 1179 231 1174 231 1174 226ZM1174 233 1179 233 1179 238 1174 238 1174 233ZM1197.25 255 1176.75 255 1172.34 240 1183 240 1183 238 1181 238 1181 233 1187 233 1193 233 1193 238 1191 238 1191 240 1201.66 240 1197.25 255Z"/><path d="M1190 245 1190 243C1190 241.897 1189.1 241 1188 241L1188 235 1186 235 1186 241C1184.9 241 1184 241.897 1184 243L1184 245C1184 245.017 1184.01 245.033 1184.01 245.051L1178.5 248.195 1179.5 249.931 1185.06 246.753C1185.34 246.905 1185.66 247 1186 247L1188 247C1188.34 247 1188.66 246.905 1188.94 246.753L1194.5 249.931 1195.5 248.195 1189.99 245.051C1189.99 245.033 1190 245.017 1190 245ZM1186 243 1188 243 1188 245 1186 245 1186 243Z"/></g></svg>