<svg width="48" height="48" xmlns="http://www.w3.org/2000/svg" xmlns:xlink="http://www.w3.org/1999/xlink" xml:space="preserve" overflow="hidden"><defs><clipPath id="clip0"><rect x="920" y="211" width="48" height="48"/></clipPath></defs><g clip-path="url(#clip0)" transform="translate(-920 -211)"><path d="M961 217.5C961 213.948 950.314 213 944 213 937.686 213 927 213.948 927 217.5 927 217.614 927.012 217.725 927.033 217.834 927.024 217.89 927 217.941 927 218L927 229 927 238 927 240.5 927 252.5C927 256.052 937.686 257 944 257 950.314 257 961 256.052 961 252.5L961 230 961 228 961 218C961 217.941 960.976 217.89 960.967 217.834 960.988 217.725 961 217.614 961 217.5ZM944 243C941.813 243 939.85 242.905 938.111 242.753L938.111 242.752C932.202 242.231 929.6 241.122 929.085 240.607 929.053 240.571 929.016 240.534 929 240.5L929 238 929 230.816C932.395 232.489 939.37 233 944 233 948.63 233 955.605 232.489 959 230.816L959 240.45C958.54 241.372 953.181 243 944 243ZM959 228 959 228.45C958.54 229.372 953.181 231 944 231 934.844 231 929.485 229.381 929 228.457L929 219.816C932.395 221.489 939.37 222 944 222 948.63 222 955.605 221.489 959 219.816L959 228ZM944 215C953.016 215 958.351 216.57 958.975 217.5 958.351 218.43 953.016 220 944 220 934.984 220 929.649 218.43 929.025 217.5 929.649 216.57 934.984 215 944 215ZM944 255C934.775 255 929.405 253.356 929 252.5L929 242.842C931.168 243.911 934.744 244.462 937.935 244.744L937.936 244.735C940.08 244.924 942.215 245 944 245 948.63 245 955.605 244.489 959 242.816L959 252 959.01 252.437C958.595 253.356 953.225 255 944 255Z"/></g></svg>