<svg width="48" height="48" xmlns="http://www.w3.org/2000/svg" xmlns:xlink="http://www.w3.org/1999/xlink" xml:space="preserve" overflow="hidden"><defs><clipPath id="clip0"><rect x="191" y="317" width="48" height="48"/></clipPath></defs><g clip-path="url(#clip0)" transform="translate(-191 -317)"><path d="M197 323 209 323 209 325 197 325Z"/><path d="M197 327 209 327 209 329 197 329Z"/><path d="M220 337C218.045 337 215.512 337.117 213 337.416L213 320 212 319 194 319 193 320 193 344 194 345 203 345 203 350 203 358C203 361.955 214.12 363 220 363 225.88 363 237 361.955 237 358L237 350 237 342C237 338.045 225.88 337 220 337ZM235 342C235 342.871 229.744 345 220 345 210.256 345 205 342.871 205 342 205 341.129 210.256 339 220 339 229.744 339 235 341.129 235 342ZM195 343 195 321 211 321 211 337.698C206.724 338.399 203 339.712 203 342L203 343 195 343ZM220 361C210.256 361 205 358.871 205 358L205 352.541C208.471 354.429 215.66 355 220 355 224.34 355 231.529 354.429 235 352.541L235 358C235 358.871 229.744 361 220 361ZM220 353C210.256 353 205 350.871 205 350L205 344.541C208.471 346.429 215.66 347 220 347 224.34 347 231.529 346.429 235 344.541L235 350C235 350.871 229.744 353 220 353Z"/><path d="M208 336 208 332 207 331 199 331 198 332 198 336 199 337 207 337 208 336ZM206 335 200 335 200 333 206 333 206 335Z"/></g></svg>