<svg width="48" height="48" xmlns="http://www.w3.org/2000/svg" xmlns:xlink="http://www.w3.org/1999/xlink" xml:space="preserve" overflow="hidden"><defs><clipPath id="clip0"><rect x="1163" y="211" width="48" height="48"/></clipPath></defs><g clip-path="url(#clip0)" transform="translate(-1163 -211)"><path d="M1208 213 1166 213 1165 214 1165 256 1167 256 1167 251 1207 251 1207 256 1209 256 1209 214 1208 213ZM1207 215 1207 225 1199.59 225 1195.91 216.717 1194.09 217.53 1197.41 225 1192 225 1192 217 1190 217 1190 225 1187 225 1187 217 1185 217 1185 225 1182 225 1182 217 1180 217 1180 225 1177 225 1177 217 1175 217 1175 225 1172 225 1172 217 1170 217 1170 225 1167 225 1167 215 1207 215ZM1180 229 1180 237 1177 237 1177 229 1175 229 1175 237 1172 237 1172 229 1170 229 1170 237 1167 237 1167 227 1207 227 1207 237 1182 237 1182 229 1180 229ZM1192 249 1192 241 1190 241 1190 249 1187 249 1187 241 1185 241 1185 249 1182 249 1182 241 1180 241 1180 249 1177 249 1177 241 1175 241 1175 249 1172 249 1172 241 1170 241 1170 249 1167 249 1167 239 1207 239 1207 249 1192 249Z"/></g></svg>