<svg width="48" height="48" xmlns="http://www.w3.org/2000/svg" xmlns:xlink="http://www.w3.org/1999/xlink" xml:space="preserve" overflow="hidden"><defs><clipPath id="clip0"><rect x="798" y="422" width="48" height="48"/></clipPath></defs><g clip-path="url(#clip0)" transform="translate(-798 -422)"><path d="M843 447.041 842 447.041 842 442.041 842 436.041 841 435.041 833 435.041 833 432.041 832 431.041 828 431.041 827 432.041 827 435.041 820 435.041 820 432.041 819 431.041 815 431.041 814 432.041 814 441.041 806 441.041 805 442.041 805 447.041 801 447.041 800.2 448.641 809.2 460.641 810 461.041 839 461.041 839.949 460.357 843.949 448.357 843 447.041ZM833 447.041 833 443.041 840 443.041 840 447.041 833 447.041ZM840 437.041 840 441.041 833 441.041 833 437.041 840 437.041ZM829 433.041 831 433.041 831 436.041 831 442.041 831 447.041 829 447.041 829 442.041 829 436.041 829 433.041ZM827 443.041 827 447.041 820 447.041 820 443.041 827 443.041ZM827 437.041 827 441.041 820 441.041 820 437.041 827 437.041ZM816 433.041 818 433.041 818 436.041 818 442.041 818 447.041 816 447.041 816 442.041 816 433.041ZM807 443.041 814 443.041 814 447.041 807 447.041 807 443.041ZM815 449.041 819 449.041 828 449.041 832 449.041 841.613 449.041 840.946 451.041 804.5 451.041 803 449.041 815 449.041ZM838.279 459.041 810.5 459.041 806 453.041 840.279 453.041 838.279 459.041Z"/></g></svg>