<svg width="48" height="48" xmlns="http://www.w3.org/2000/svg" xmlns:xlink="http://www.w3.org/1999/xlink" xml:space="preserve" overflow="hidden"><defs><clipPath id="clip0"><rect x="920" y="317" width="48" height="48"/></clipPath></defs><g clip-path="url(#clip0)" transform="translate(-920 -317)"><path d="M959 347 959 329 958 328 930 328 929 329 929 347 930 348 958 348 959 347ZM957 330 957 337 931 337 931 330 957 330ZM931 339 943 339 943 346 931 346 931 339ZM945 346 945 339 957 339 957 346 945 346Z"/><path d="M965 350 963 350 963 327.468C962.982 325.553 961.419 324 959.5 324L928.5 324C926.581 324 925.018 325.553 925 327.468L925 350 923 350 922 351 922 355.235C922 356.76 923.267 358 924.824 358L963.176 358C964.733 358 966 356.76 966 355.235L966 351 965 350ZM927 327.5C927 326.673 927.673 326 928.5 326L959.5 326C960.327 326 961 326.673 961 327.5L961 350 948 350 947 351 947 352 941 352 941 351 940 350 927 350 927 327.5ZM964 355.235C964 355.657 963.63 356 963.176 356L924.824 356C924.37 356 924 355.657 924 355.235L924 352 939 352 939 353 940 354 948 354 949 353 949 352 964 352 964 355.235Z"/><path d="M933 332 935 332 935 334 933 334Z"/><path d="M937 332 939 332 939 334 937 334Z"/><path d="M941 332 943 332 943 334 941 334Z"/><path d="M938.316 341.052 937.684 341.052 935.077 341.92 933.447 341.105 932.553 342.895 934.553 343.895 935.316 343.948 938 343.054 940.684 343.948 941.316 342.052Z"/><path d="M948 341 950 341 950 343 948 343Z"/><path d="M952 341 954 341 954 343 952 343Z"/></g></svg>