<svg width="48" height="48" xmlns="http://www.w3.org/2000/svg" xmlns:xlink="http://www.w3.org/1999/xlink" xml:space="preserve" overflow="hidden"><defs><clipPath id="clip0"><rect x="434" y="317" width="48" height="48"/></clipPath></defs><g clip-path="url(#clip0)" transform="translate(-434 -317)"><path d="M479 319 473 319 473 321 476.586 321 460.586 337 452 337 451.293 337.293 436.293 352.293 437.707 353.707 452.414 339 461 339 461.707 338.707 478 322.414 478 326 480 326 480 320Z"/><path d="M442 352 444 352 444 363 442 363Z"/><path d="M448 346 450 346 450 363 448 363Z"/><path d="M454 341 456 341 456 363 454 363Z"/><path d="M460 341 462 341 462 363 460 363Z"/><path d="M472 332 474 332 474 363 472 363Z"/><path d="M466 338 468 338 468 363 466 363Z"/><path d="M436 357 438 357 438 363 436 363Z"/><path d="M478 329 480 329 480 363 478 363Z"/></g></svg>