<svg width="48" height="48" xmlns="http://www.w3.org/2000/svg" xmlns:xlink="http://www.w3.org/1999/xlink" xml:space="preserve" overflow="hidden"><g transform="translate(-69 -528)"><path d="M114 532 72 532 71 533 71 558 72 559 92 559 92 562.059C87.507 562.558 84 566.375 84 571L85 572 101 572 102 571C102 566.375 98.493 562.558 94 562.059L94 559 114 559 115 558 115 533 114 532ZM99.929 570 86.071 570C86.558 566.612 89.479 564 93 564 96.521 564 99.442 566.612 99.929 570ZM113 557 73 557 73 534 113 534 113 557Z"/><path d="M106 553 104 553 104 544 103 543 99 543 98 544 98 553 96 553 96 537 95 536 91 536 90 537 90 553 88 553 88 548 87 547 83 547 82 548 82 553 80 553 80 555 106 555 106 553ZM100 545 102 545 102 553 100 553 100 545ZM92 538 94 538 94 553 92 553 92 538ZM84 549 86 549 86 553 84 553 84 549Z"/></g></svg>