<svg width="48" height="48" xmlns="http://www.w3.org/2000/svg" xmlns:xlink="http://www.w3.org/1999/xlink" xml:space="preserve" overflow="hidden"><defs><clipPath id="clip0"><rect x="555" y="211" width="48" height="48"/></clipPath></defs><g clip-path="url(#clip0)" transform="translate(-555 -211)"><path d="M600 217 596 217 596 213 594 213 594 217 588 217 588 213 586 213 586 217 580 217 580 213 578 213 578 217 572 217 572 213 570 213 570 217 564 217 564 213 562 213 562 217 558 217 557 218 557 256 558 257 600 257 601 256 601 218 600 217ZM562 219 562 221 564 221 564 219 570 219 570 221 572 221 572 219 578 219 578 221 580 221 580 219 586 219 586 221 588 221 588 219 594 219 594 221 596 221 596 219 599 219 599 223 559 223 559 219 562 219ZM559 255 559 225 599 225 599 255 559 255Z"/><path d="M564 229 566 229 566 231 564 231Z"/><path d="M571 229 573 229 573 231 571 231Z"/><path d="M578 229 580 229 580 231 578 231Z"/><path d="M585 229 587 229 587 231 585 231Z"/><path d="M592 229 594 229 594 231 592 231Z"/><path d="M564 234 566 234 566 236 564 236Z"/><path d="M571 234 573 234 573 236 571 236Z"/><path d="M578 234 580 234 580 236 578 236Z"/><path d="M585 234 587 234 587 236 585 236Z"/><path d="M592 234 594 234 594 236 592 236Z"/><path d="M564 239 566 239 566 241 564 241Z"/><path d="M571 239 573 239 573 241 571 241Z"/><path d="M578 239 580 239 580 241 578 241Z"/><path d="M585 239 587 239 587 241 585 241Z"/><path d="M592 239 594 239 594 241 592 241Z"/><path d="M564 244 566 244 566 246 564 246Z"/><path d="M571 244 573 244 573 246 571 246Z"/><path d="M564 249 566 249 566 251 564 251Z"/><path d="M571 249 573 249 573 251 571 251Z"/><path d="M578 244 580 244 580 246 578 246Z"/><path d="M585 244 587 244 587 246 585 246Z"/><path d="M592 244 594 244 594 246 592 246Z"/></g></svg>