<svg width="48" height="48" xmlns="http://www.w3.org/2000/svg" xmlns:xlink="http://www.w3.org/1999/xlink" xml:space="preserve" overflow="hidden"><defs><clipPath id="clip0"><rect x="555" y="211" width="48" height="48"/></clipPath></defs><g clip-path="url(#clip0)" transform="translate(-555 -211)"><path d="M598.92 224C598.75 222.817 598.284 221.731 597.598 220.816L599.107 219.307 597.693 217.893 596.184 219.402C595.269 218.716 594.183 218.25 593 218.08L593 216 591 216 591 218.08C589.817 218.251 588.731 218.716 587.816 219.402L586.307 217.893 584.893 219.307 586.402 220.816C585.716 221.731 585.25 222.817 585.08 224L583 224 583 226 585.08 226C585.25 227.183 585.716 228.269 586.402 229.184L584.893 230.693 586.307 232.107 587.816 230.598C588.731 231.284 589.817 231.749 591 231.92L591 234 593 234 593 231.92C594.183 231.749 595.269 231.284 596.184 230.598L597.693 232.107 599.107 230.693 597.598 229.184C598.284 228.269 598.749 227.183 598.92 226L601 226 601 224 598.92 224ZM597 225C597 227.757 594.757 230 592 230 589.243 230 587 227.757 587 225 587 222.243 589.243 220 592 220 594.757 220 597 222.243 597 225Z"/><path d="M581.155 232.259 583.307 230.107 581.893 228.693 579.741 230.845C577.889 229.276 575.558 228.263 573 228.05L573 225 571 225 571 228.051C568.442 228.264 566.111 229.277 564.259 230.846L562.107 228.694 560.693 230.108 562.845 232.26C561.277 234.111 560.263 236.442 560.051 239L557 239 557 241 560.051 241C560.264 243.558 561.277 245.889 562.846 247.741L560.694 249.893 562.108 251.307 564.26 249.155C566.112 250.724 568.443 251.737 571.001 251.95L571.001 255 573.001 255 573.001 251.949C575.559 251.736 577.89 250.723 579.742 249.154L581.894 251.306 583.308 249.892 581.156 247.74C582.725 245.888 583.738 243.557 583.951 240.999L587 240.999 587 238.999 583.949 238.999C583.737 236.442 582.723 234.111 581.155 232.259ZM572 250C566.486 250 562 245.514 562 240 562 234.486 566.486 230 572 230 577.514 230 582 234.486 582 240 582 245.514 577.514 250 572 250Z"/><path d="M561 216.414 561 224 563 224 563 216.414 565.293 218.707 566.707 217.293 562.707 213.293 561.293 213.293 557.293 217.293 558.707 218.707Z"/><path d="M597 253.586 597 246 595 246 595 253.586 592.707 251.293 591.293 252.707 595.293 256.707 596.707 256.707 600.707 252.707 599.293 251.293Z"/><path d="M572 233C568.141 233 565 236.141 565 240 565 243.859 568.141 247 572 247 575.859 247 579 243.859 579 240 579 236.141 575.859 233 572 233ZM572 245C569.243 245 567 242.757 567 240 567 237.243 569.243 235 572 235 574.757 235 577 237.243 577 240 577 242.757 574.757 245 572 245Z"/></g></svg>