<svg width="48" height="48" xmlns="http://www.w3.org/2000/svg" xmlns:xlink="http://www.w3.org/1999/xlink" xml:space="preserve" overflow="hidden"><defs><clipPath id="clip0"><rect x="312" y="211" width="48" height="48"/></clipPath></defs><g clip-path="url(#clip0)" transform="translate(-312 -211)"><path d="M348.314 239.202C350.614 236.431 352 232.875 352 229 352 220.178 344.822 213 336 213 327.178 213 320 220.178 320 229 320 232.875 321.386 236.431 323.686 239.202L317.156 249.463 317.293 250.707 318.293 251.707 319.394 251.919 325.315 249.382 327.031 256.242 328 257 329 257 329.923 256.385 334.694 244.934C335.126 244.969 335.559 245 336 245 336.441 245 336.874 244.969 337.306 244.934L342.077 256.385 343 257 344 257 344.97 256.242 346.686 249.382 352.607 251.919 353.708 251.707 354.708 250.707 354.845 249.463 348.314 239.202ZM328.613 254.329 326.969 247.758 325.606 247.081 319.332 249.77 325.111 240.69C327.189 242.627 329.773 244.026 332.65 244.642L328.613 254.329ZM322 229C322 221.28 328.28 215 336 215 343.72 215 350 221.28 350 229 350 236.72 343.72 243 336 243 328.28 243 322 236.72 322 229ZM346.394 247.081 345.031 247.758 343.387 254.329 339.351 244.641C342.228 244.025 344.812 242.627 346.89 240.689L352.669 249.769 346.394 247.081Z"/><path d="M344 226 338.721 226 336.949 220.684 335.053 220.684 333.279 226 328 226 327.485 227.857 331.798 230.444 330.052 235.683 331.625 236.781 336 233.28 340.375 236.781 341.948 235.683 340.202 230.444 344.515 227.857 344 226ZM338.485 229.143 338.051 230.317 338.98 233.104 336.625 231.219 335.375 231.219 333.02 233.104 333.949 230.317 333.515 229.143 331.61 228 334 228 334.948 227.316 336 224.162 337.052 227.316 338 228 340.39 228 338.485 229.143Z"/></g></svg>