<svg width="48" height="48" xmlns="http://www.w3.org/2000/svg" xmlns:xlink="http://www.w3.org/1999/xlink" xml:space="preserve" overflow="hidden"><defs><clipPath id="clip0"><rect x="69" y="422" width="48" height="48"/></clipPath></defs><g clip-path="url(#clip0)" transform="translate(-69 -422)"><path d="M115 430 96.858 430C96.411 428.28 94.858 427 93 427 91.142 427 89.589 428.28 89.142 430L71 430 71 432 76.685 432 72.037 448.732 72 449C72 452.309 74.691 455 78 455 81.309 455 84 452.309 84 449L79.313 432 89.142 432C89.506 433.399 90.601 434.494 92 434.858L92 460 83 460C80.799 460 80 461.794 80 463L80 465 81 466 105 466 106 465 106 463C106 460.799 104.206 460 103 460L94 460 94 434.858C95.399 434.494 96.494 433.399 96.858 432L106.684 432 102.036 448.732 102 449C102 452.309 104.691 455 108 455 111.309 455 114 452.309 114 449L109.313 432 115 432 115 430ZM78 434.736 81.684 448 74.316 448 78 434.736ZM78 453C76.141 453 74.581 451.722 74.135 450L81.866 450C81.419 451.722 79.859 453 78 453ZM104 463 104 464 82 464 82 463.012C82.012 462.55 82.195 462 83 462L102.988 462C103.45 462.012 104 462.194 104 463ZM93 433C91.897 433 91 432.103 91 431 91 429.897 91.897 429 93 429 94.103 429 95 429.897 95 431 95 432.103 94.103 433 93 433ZM108 434.736 111.684 448 104.315 448 108 434.736ZM108 453C106.141 453 104.581 451.722 104.135 450L111.866 450C111.419 451.722 109.859 453 108 453Z"/></g></svg>