<svg width="48" height="48" xmlns="http://www.w3.org/2000/svg" xmlns:xlink="http://www.w3.org/1999/xlink" xml:space="preserve" overflow="hidden"><defs><clipPath id="clip0"><rect x="191" y="528" width="48" height="48"/></clipPath></defs><g clip-path="url(#clip0)" transform="translate(-191 -528)"><path d="M215 530C202.85 530 193 539.85 193 552 193 564.15 202.85 574 215 574L216 574 216 572 215 572C203.954 572 195 563.046 195 552 195 540.954 203.954 532 215 532 226.046 532 235 540.954 235 552L235 553 237 553 237 552C237 539.85 227.15 530 215 530Z"/><path d="M220 543 204 543 203 544 203 557 204 558 206.05 558C206.153 559.919 207.792 561.391 209.712 561.289 211.487 561.193 212.905 559.775 213 558L220.1 558C220.352 559.905 222.101 561.246 224.006 560.994 225.566 560.788 226.794 559.56 227 558L227.86 558 228.86 557 228.86 551 227.86 550 226.59 550 225.79 545.81 224.79 545 221 545 221 544ZM209.5 559C208.672 559 208 558.328 208 557.5 208 556.672 208.672 556 209.5 556 210.328 556 211 556.672 211 557.5 211 558.328 210.328 559 209.5 559ZM219 556 212.65 556C211.833 554.26 209.76 553.512 208.021 554.329 207.286 554.674 206.695 555.265 206.35 556L205 556 205 545 219 545ZM223.5 559C222.672 559 222 558.328 222 557.5 222 556.672 222.672 556 223.5 556 224.328 556 225 556.672 225 557.5 225 558.328 224.328 559 223.5 559ZM226.81 556 226.65 556C225.855 554.25 223.792 553.476 222.042 554.271 221.653 554.448 221.3 554.695 221 555L221 552 226.81 552ZM224 547 224.58 550 221 550 221 547Z"/></g></svg>