<svg width="48" height="48" xmlns="http://www.w3.org/2000/svg" xmlns:xlink="http://www.w3.org/1999/xlink" xml:space="preserve" overflow="hidden"><defs><clipPath id="clip0"><rect x="312" y="528" width="48" height="48"/></clipPath></defs><g clip-path="url(#clip0)" transform="translate(-312 -528)"><path d="M355 530 317 530 316 531 316 573 317 574 355 574 356 573 356 531 355 530ZM354 532 354 541 318 541 318 532 354 532ZM318 543 328 543 328 572 318 572 318 543ZM330 572 330 543 354 543 354 572 330 572Z"/><path d="M328 534 330 534 330 536 328 536Z"/><path d="M335 534 337 534 337 536 335 536Z"/><path d="M342 534 344 534 344 536 342 536Z"/><path d="M328 537 330 537 330 539 328 539Z"/><path d="M335 537 337 537 337 539 335 539Z"/><path d="M342 537 344 537 344 539 342 539Z"/><path d="M334 545 341 545 341 547 334 547Z"/><path d="M334 567 341 567 341 569 334 569Z"/><path d="M343 545 350 545 350 547 343 547Z"/><path d="M343 558 350 558 350 560 343 560Z"/><path d="M335 549 334 550 334 555 335 556 340 556 341 555 341 550 340 549 335 549ZM339 554 336 554 336 551 339 551 339 554Z"/><path d="M335 558 334 559 334 564 335 565 340 565 341 564 341 559 340 558 335 558ZM339 563 336 563 336 560 339 560 339 563Z"/><path d="M344 549 343 550 343 555 344 556 349 556 350 555 350 550 349 549 344 549ZM348 554 345 554 345 551 348 551 348 554Z"/></g></svg>