<svg width="48" height="48" xmlns="http://www.w3.org/2000/svg" xmlns:xlink="http://www.w3.org/1999/xlink" xml:space="preserve" overflow="hidden"><defs><clipPath id="clip0"><rect x="920" y="528" width="48" height="48"/></clipPath></defs><g clip-path="url(#clip0)" transform="translate(-920 -528)"><path d="M955 530 933 530C930.799 530 930 531.794 930 533L930 571C930 573.201 931.794 574 933 574L955 574C957.201 574 958 572.206 958 571L958 533C958 530.799 956.206 530 955 530ZM956 570.988C955.988 571.45 955.805 572 955 572L933.012 572C932.55 571.988 932 571.806 932 571L932 533.012C932.012 532.55 932.195 532 933 532L954.988 532C955.45 532.012 956 532.194 956 533L956 570.988Z"/><path d="M953 540 954 539 954 535 953 534 935 534 934 535 934 539 935 540 953 540ZM936 536 952 536 952 538 936 538 936 536Z"/><path d="M934 545 954 545 954 547 934 547Z"/><path d="M934 549 954 549 954 551 934 551Z"/><path d="M934 553 954 553 954 555 934 555Z"/><path d="M934 557 948 557 948 559 934 559Z"/><path d="M934 561 942 561 942 563 934 563Z"/><path d="M934 565 942 565 942 567 934 567Z"/><path d="M948 565.333 945.8 562.4 944.2 563.6 947.2 567.6 948.8 567.6 954.8 559.6 953.2 558.4Z"/></g></svg>