<svg width="48" height="48" xmlns="http://www.w3.org/2000/svg" xmlns:xlink="http://www.w3.org/1999/xlink" xml:space="preserve" overflow="hidden"><defs><clipPath id="clip0"><rect x="555" y="316" width="48" height="48"/></clipPath></defs><g clip-path="url(#clip0)" transform="translate(-555 -316)"><path d="M599.463 336.156 596.63 337.959 592.982 318.813 592 318 586.961 318 585.977 318.823 582.044 340.669 580.01 342.099 580 336.999 578.427 336.182 570 342.08 570 337 568.463 336.156 557.463 343.156 557 344 557 361 558 362 600 362 601 361 601 337 599.463 336.156ZM587.797 320 591.173 320 594.814 339.115 590 342.178 590 337 588.425 336.182 584.371 339.032 587.797 320ZM599 360 559 360 559 344.549 568 338.822 568 344 569.573 344.819 578.004 338.918 578.014 344.023 579.589 344.839 588 338.925 588 344 589.537 344.844 599 338.822 599 360Z"/><path d="M563 350 565 350 565 354 563 354Z"/><path d="M568 350 570 350 570 354 568 354Z"/><path d="M573 350 575 350 575 354 573 354Z"/><path d="M578 350 580 350 580 354 578 354Z"/><path d="M583 350 585 350 585 354 583 354Z"/><path d="M588 350 590 350 590 354 588 354Z"/><path d="M593 350 595 350 595 354 593 354Z"/></g></svg>