<svg width="48" height="48" xmlns="http://www.w3.org/2000/svg" xmlns:xlink="http://www.w3.org/1999/xlink" xml:space="preserve" overflow="hidden"><g transform="translate(-434 -211)"><path d="M479 240 456 240 456 234 455 233 453 233 453 214 452 213 443 213 442 214 442 240 437 240 436 241 436 256 437 257 447 257 463 257 479 257 480 256 480 241 479 240ZM446 249 446 255 438 255 438 242 443 242 444 241 444 231 449 231 449 229 444 229 444 227 449 227 449 225 444 225 444 223 449 223 449 221 444 221 444 219 449 219 449 217 444 217 444 215 451 215 451 234 452 235 454 235 454 241 454 248 447 248 446 249ZM462 255 448 255 448 250 462 250 462 255ZM478 255 464 255 464 249 463 248 456 248 456 242 478 242 478 255Z"/><path d="M458 244 460 244 460 246 458 246Z"/><path d="M462 244 464 244 464 246 462 246Z"/><path d="M466 244 468 244 468 246 466 246Z"/><path d="M470 244 472 244 472 246 470 246Z"/><path d="M466 248 468 248 468 250 466 250Z"/><path d="M470 248 472 248 472 250 470 250Z"/><path d="M474 244 476 244 476 246 474 246Z"/><path d="M474 248 476 248 476 250 474 250Z"/></g></svg>