<svg width="48" height="48" xmlns="http://www.w3.org/2000/svg" xmlns:xlink="http://www.w3.org/1999/xlink" xml:space="preserve" overflow="hidden"><defs><clipPath id="clip0"><rect x="191" y="211" width="48" height="48"/></clipPath></defs><g clip-path="url(#clip0)" transform="translate(-191 -211)"><path d="M196 223 196 256 197 257 216 257 216.71 256.71 221.71 251.71 222 251 222 235 220 235 220 249 215 249 214 250 214 255 198 255 198 224 207 224 207 222 197 222ZM219.59 251 216 254.55 216 251Z"/><path d="M200 236.96 202 236.96 202 238.96 200 238.96Z"/><path d="M204 236.96 218 236.96 218 238.96 204 238.96Z"/><path d="M200 240.96 202 240.96 202 242.96 200 242.96Z"/><path d="M204 240.96 218 240.96 218 242.96 204 242.96Z"/><path d="M200 244.96 202 244.96 202 246.96 200 246.96Z"/><path d="M204 244.96 218 244.96 218 246.96 204 246.96Z"/><path d="M216 216.46C211.442 218.026 208.282 222.189 208 227L206 227 205 228 205 232 206 233 234 233 235 232 235 228 234 227 232 227C231.702 222.204 228.545 218.06 224 216.5L224 214 223 213 217 213 216 214ZM218 215 222 215 222 222 224 222 224 218.6C227.612 220.139 229.968 223.674 230 227.6L230 228 231 229 233 229 233 231 207 231 207 229 209 229 210 228 210 227.67C210.032 223.744 212.388 220.209 216 218.67L216 222 218 222Z"/></g></svg>