<svg width="48" height="48" xmlns="http://www.w3.org/2000/svg" xmlns:xlink="http://www.w3.org/1999/xlink" xml:space="preserve" overflow="hidden"><defs><clipPath id="clip0"><rect x="1041" y="317" width="48" height="48"/></clipPath></defs><g clip-path="url(#clip0)" transform="translate(-1041 -317)"><path d="M1075.51 344C1078.82 344 1081.51 341.309 1081.51 338 1081.51 334.691 1078.82 332 1075.51 332 1072.2 332 1069.51 334.691 1069.51 338 1069.51 341.309 1072.2 344 1075.51 344ZM1075.51 334C1077.72 334 1079.51 335.794 1079.51 338 1079.51 340.206 1077.72 342 1075.51 342 1073.31 342 1071.51 340.206 1071.51 338 1071.51 335.794 1073.31 334 1075.51 334Z"/><path d="M1080.13 346.004 1070.11 346C1066.12 346 1063 349.185 1063 353.25L1063 362 1064 363 1086 363 1087 362 1087 353.25C1087 349.269 1084 346.132 1080.13 346.004ZM1085 361 1083 361 1083 354 1081 354 1081 361 1070 361 1070 354 1068 354 1068 361 1065 361 1065 353.25C1065 350.306 1067.24 348 1070.11 348L1079.89 348C1082.76 348 1085 350.306 1085 353.25L1085 361Z"/><path d="M1067 334.007 1068.01 333 1068.01 320 1067 318.993 1044 318.993 1042.99 320 1042.99 333 1044 334.007 1051.44 334.007 1061.23 339.214 1062.6 337.86 1060.59 334.007 1067 334.007ZM1052.16 332.111 1051.69 331.993 1045.01 331.993 1045.01 321.007 1065.99 321.007 1065.99 331.993 1058.93 331.993 1058.04 333.466 1059.31 335.912 1052.16 332.111Z"/></g></svg>